<?xml version="1.0" encoding="UTF-8" standalone="no"?>
<!-- Created with Inkscape (http://www.inkscape.org/) -->

<svg
   width="12.699989mm"
   height="10.12159mm"
   viewBox="0 0 12.699989 10.12159"
   version="1.1"
   id="svg5"
   xml:space="preserve"
   xmlns="http://www.w3.org/2000/svg"
   xmlns:svg="http://www.w3.org/2000/svg"><defs
     id="defs2" /><g
     id="layer1"
     transform="translate(-92.291308,-122.99355)"><path fill="#800080"
       d="m 99.669505,126.82163 c 0,-0.49941 -0.352526,-0.7751 -0.971707,-0.7751 h -1.138933 v 1.60896 h 0.96041 c 0.74121,-0.002 1.15023,-0.30055 1.15023,-0.83386 z m 4.146705,-0.28925 c -0.21468,-0.69827 -0.24631,-1.55473 -0.22146,-2.21685 0.0249,-0.68924 -0.51297,-1.32198 -1.2361,-1.32198 h -7.430176 c -0.725392,0 -1.260961,0.635 -1.236103,1.32198 0.0226,0.66212 -0.0068,1.51858 -0.221459,2.21685 -0.21694,0.70053 -0.580766,1.14345 -1.179609,1.19995 v 0.64404 c 0.596584,0.0565 0.962669,0.49941 1.179609,1.19994 0.214679,0.69828 0.246316,1.55473 0.221459,2.21685 -0.02486,0.68924 0.512971,1.32198 1.236103,1.32198 h 7.427916 c 0.72539,0 1.26096,-0.635 1.23611,-1.32198 -0.0226,-0.66212 0.007,-1.51857 0.22145,-2.21685 0.21694,-0.70053 0.58077,-1.14345 1.17735,-1.19994 v -0.64404 c -0.59432,-0.0565 -0.96041,-0.49942 -1.17509,-1.19995 z m -4.899213,4.2145 h -2.212331 v -5.38507 h 2.201032 c 0.978488,0 1.620262,0.52879 1.620262,1.34231 0,0.57173 -0.43161,1.08244 -0.983002,1.17057 v 0.0294 c 0.750252,0.0814 1.254182,0.6011 1.254182,1.31745 0,0.95138 -0.70731,1.52536 -1.880143,1.52536 z m -0.225979,-2.45639 h -1.132153 v 1.77168 h 1.181869 c 0.772847,0 1.181868,-0.3096 1.181868,-0.89262 0,-0.58077 -0.42032,-0.87906 -1.231584,-0.87906 z"
       id="path140"
       style="stroke-width:0.0225978" /></g></svg>
