<?xml version="1.0" encoding="UTF-8" standalone="no"?>
<!-- Created with Inkscape (http://www.inkscape.org/) -->

<svg
   width="24.860809mm"
   height="30.038712mm"
   viewBox="0 0 24.860809 30.038712"
   version="1.1"
   id="svg5"
   sodipodi:docname="logo.svg"
   inkscape:version="1.2.1 (9c6d41e410, 2022-07-14)"
   xmlns:inkscape="http://www.inkscape.org/namespaces/inkscape"
   xmlns:sodipodi="http://sodipodi.sourceforge.net/DTD/sodipodi-0.dtd"
   xmlns="http://www.w3.org/2000/svg"
   xmlns:svg="http://www.w3.org/2000/svg">
  <sodipodi:namedview
     id="namedview7"
     pagecolor="#000000"
     bordercolor="#000000"
     borderopacity="0.25"
     inkscape:showpageshadow="2"
     inkscape:pageopacity="1"
     inkscape:pagecheckerboard="0"
     inkscape:deskcolor="#d1d1d1"
     inkscape:document-units="mm"
     showgrid="false"
     showguides="true"
     inkscape:zoom="1.4752525"
     inkscape:cx="419.25025"
     inkscape:cy="458.22663"
     inkscape:window-width="1920"
     inkscape:window-height="1017"
     inkscape:window-x="-8"
     inkscape:window-y="-8"
     inkscape:window-maximized="1"
     inkscape:current-layer="g2834">
    <sodipodi:guide
       position="-138.90632,76.639104"
       orientation="0,-1"
       id="guide2970"
       inkscape:locked="false" />
    <sodipodi:guide
       position="-129.0718,47.289034"
       orientation="0,-1"
       id="guide3203"
       inkscape:locked="false" />
    <sodipodi:guide
       position="-78.770956,64.068664"
       orientation="1,0"
       id="guide1898"
       inkscape:locked="false" />
    <sodipodi:guide
       position="-31.929168,170.08856"
       orientation="0,-1"
       id="guide2275"
       inkscape:locked="false" />
    <sodipodi:guide
       position="-19.270108,108.60785"
       orientation="0,-1"
       id="guide2368"
       inkscape:locked="false" />
    <sodipodi:guide
       position="-43.302718,142.14591"
       orientation="1,0"
       id="guide2370"
       inkscape:locked="false" />
  </sodipodi:namedview>
  <defs
     id="defs2">
    <linearGradient
       id="linearGradient3990"
       inkscape:swatch="solid">
      <stop
         style="stop-color:#4227ff;stop-opacity:1;"
         offset="0"
         id="stop3988" />
    </linearGradient>
  </defs>
  <g
     inkscape:groupmode="layer"
     id="layer2"
     inkscape:label="Layer 2"
     transform="translate(-163.37609,-145.3762)">
    <g
       id="g2834"
       inkscape:export-filename="dblogo.svg"
       inkscape:export-xdpi="96"
       inkscape:export-ydpi="96"
       style="stroke:#000000;stroke-opacity:1">
      <path
         id="rect448-6"
         style="opacity:1;fill:#6effdc;stroke:#091425;stroke-width:0.4;stroke-dasharray:none;stroke-opacity:0.980392"
         d="m 165.79559,145.57641 c -1.2295,0 -2.2195,0.99686 -2.2195,2.23501 v 25.03568 c 0,1.22787 0.97372,2.21761 2.18901,2.23397 0.57244,0.10728 1.18641,-0.0272 1.67638,-0.42116 l 4.86172,-3.90881 v 2.22157 c 0,1.24199 0.98949,2.24224 2.21899,2.24224 0.46837,0 0.90201,-0.14546 1.25935,-0.39377 0.0948,-0.0557 0.18711,-0.11961 0.27595,-0.19224 l 10.96419,-8.96276 c 0.30861,-0.25228 0.53531,-0.57543 0.67645,-0.93017 0.45179,-0.85254 0.25582,-1.93021 -0.51935,-2.56367 -0.112,-0.11514 -0.23434,-0.21415 -0.3638,-0.29714 l -1.72238,-1.40715 2.18281,-1.75493 c 0.63047,-0.5069 0.87914,-1.30193 0.71004,-2.03399 -0.0239,-0.6643 -0.32379,-1.31556 -0.87127,-1.74976 l -11.17864,-8.86561 c -0.47117,-0.37368 -1.03384,-0.51403 -1.56631,-0.43977 -1.15739,0.0791 -2.06603,1.04616 -2.06603,2.23604 v 2.15646 l -4.8643,-3.97495 c -0.42576,-0.34793 -0.94545,-0.49621 -1.44953,-0.4563 -0.064,-0.006 -0.12835,-0.009 -0.19378,-0.009 z m 2.21898,6.23838 4.28863,3.5047 v 10.18852 l -4.28863,3.44837 z m 8.72712,0.57154 5.98155,4.7439 -0.86403,0.69505 -5.11752,-4.18166 z m 0,6.56033 1.84588,1.50843 -1.84588,1.48466 z m 5.07979,4.15116 0.67076,0.54829 -5.75055,4.70101 v -1.16479 z" />
    </g>
  </g>
</svg>
