<?xml version="1.0" encoding="UTF-8" standalone="no"?>
<!-- Created with Inkscape (http://www.inkscape.org/) -->

<svg
   width="12.699997mm"
   height="12.699997mm"
   viewBox="0 0 12.699997 12.699997"
   version="1.1"
   id="svg5"
   xml:space="preserve"
   xmlns="http://www.w3.org/2000/svg"
   xmlns:svg="http://www.w3.org/2000/svg"><defs
     id="defs2" /><g
     id="layer1"
     transform="translate(-86.910868,-156.85653)"><path fill="#F0DB4F"
       d="m 98.250153,156.85652 h -9.978571 c -0.751228,0 -1.360715,0.60949 -1.360715,1.36072 v 9.97857 c 0,0.75123 0.609487,1.36072 1.360715,1.36072 h 9.978571 c 0.751228,0 1.360714,-0.60949 1.360714,-1.36072 v -9.97857 c 0,-0.75123 -0.609486,-1.36072 -1.360714,-1.36072 z m -4.42799,9.90487 c 0,1.23598 -0.725715,1.80011 -1.783103,1.80011 -0.955335,0 -1.508125,-0.49326 -1.791607,-1.0914 l 0.972343,-0.58681 c 0.187099,0.33167 0.357188,0.61232 0.768237,0.61232 0.391205,0 0.64067,-0.15308 0.64067,-0.75123 v -4.05663 h 1.19346 z m 2.823482,1.80011 c -1.108416,0 -1.825626,-0.52727 -2.174308,-1.21897 l 0.972344,-0.5613 c 0.255134,0.41672 0.589642,0.72572 1.176451,0.72572 0.493259,0 0.810759,-0.24663 0.810759,-0.58964 0,-0.40822 -0.32317,-0.55279 -0.870291,-0.79375 l -0.297656,-0.12757 c -0.861786,-0.36569 -1.431585,-0.82777 -1.431585,-1.80011 0,-0.89581 0.683192,-1.57616 1.74625,-1.57616 0.759732,0 1.304018,0.26363 1.695223,0.95533 l -0.929821,0.59531 c -0.204107,-0.36569 -0.425223,-0.51026 -0.768237,-0.51026 -0.348682,0 -0.569799,0.22111 -0.569799,0.51026 0,0.35719 0.221117,0.50177 0.734219,0.72572 l 0.297656,0.12756 c 1.014866,0.43373 1.584665,0.8788 1.584665,1.87666 0,1.07156 -0.844777,1.6612 -1.97587,1.6612 z"
       id="path336"
       style="stroke-width:0.0283482" /></g></svg>
