<?xml version="1.0" encoding="UTF-8" standalone="no"?>
<!-- Created with Inkscape (http://www.inkscape.org/) -->

<svg
   width="14.816666mm"
   height="14.816666mm"
   viewBox="0 0 14.816666 14.816666"
   version="1.1"
   id="svg5"
   xml:space="preserve"
   xmlns="http://www.w3.org/2000/svg"
   xmlns:svg="http://www.w3.org/2000/svg"><defs
     id="defs2" /><g
     id="layer1"
     transform="translate(-90.515574,-110.60254)"><g
       style="clip-rule:evenodd;fill-rule:evenodd"
       id="g154"
       transform="matrix(0.37119618,0,0,0.37119618,88.999612,109.10588)"><path
         fill="#f06292"
         fill-rule="evenodd"
         d="M 24.042,4.032 C 35.065,4.032 44,12.967 44,23.99 44,35.012 35.065,43.948 24.042,43.948 13.02,43.948 4.084,35.013 4.084,23.99 4.085,12.967 13.02,4.032 24.042,4.032 Z"
         clip-rule="evenodd"
         id="path142" /><path
         fill="#ffffff"
         d="M 36.561,12.574 C 35.657,9.029 29.78,7.864 24.218,9.84 c -3.31,1.176 -6.894,3.022 -9.471,5.432 -3.064,2.866 -3.552,5.36 -3.351,6.402 0.71,3.677 5.749,6.081 7.82,7.865 v 0.011 c -0.611,0.301 -5.081,2.563 -6.127,4.876 -1.104,2.44 0.176,4.191 1.023,4.427 2.625,0.73 5.318,-0.583 6.766,-2.742 1.397,-2.084 1.281,-4.774 0.674,-6.113 0.837,-0.221 1.814,-0.32 3.054,-0.175 3.501,0.409 4.188,2.595 4.056,3.51 -0.131,0.915 -0.866,1.418 -1.111,1.57 -0.246,0.152 -0.32,0.205 -0.3,0.317 0.03,0.164 0.143,0.158 0.353,0.123 0.288,-0.049 1.838,-0.744 1.905,-2.433 0.084,-2.144 -1.97,-4.542 -5.608,-4.48 -1.498,0.026 -2.44,0.168 -3.121,0.422 -0.05,-0.057 -0.102,-0.114 -0.154,-0.171 -2.249,-2.4 -6.407,-4.097 -6.231,-7.323 0.064,-1.173 0.472,-4.261 7.989,-8.007 6.158,-3.069 11.088,-2.224 11.94,-0.353 1.217,2.674 -2.635,7.643 -9.03,8.36 -2.437,0.273 -3.72,-0.671 -4.039,-1.023 -0.336,-0.37 -0.386,-0.387 -0.511,-0.317 -0.204,0.113 -0.075,0.44 0,0.635 0.191,0.497 0.975,1.378 2.31,1.817 1.175,0.386 4.036,0.597 7.496,-0.741 3.874,-1.5 6.9,-5.67 6.011,-9.155 z M 20.076,30.638 c 0.29,1.074 0.258,2.076 -0.041,2.983 -0.033,0.101 -0.07,0.2 -0.11,0.299 -0.04,0.098 -0.083,0.196 -0.129,0.292 -0.231,0.48 -0.542,0.929 -0.922,1.344 -1.16,1.265 -2.78,1.743 -3.474,1.34 -0.75,-0.435 -0.374,-2.218 0.97,-3.64 1.446,-1.529 3.527,-2.512 3.527,-2.512 l -0.003,-0.006 c 0.06,-0.033 0.121,-0.066 0.182,-0.1 z"
         id="path144" /></g></g></svg>
